<mxfile host="app.diagrams.net" modified="2022-10-30T07:28:28.201Z" agent="5.0 (Windows NT 10.0; Win64; x64) AppleWebKit/537.36 (KHTML, like Gecko) Chrome/106.0.0.0 Safari/537.36" etag="amfuyYYO2InptUUwNtbS" version="20.5.1" type="github">
  <diagram id="N8YceiyxnaoCASCBBXYR" name="페이지-1">
    <mxGraphModel dx="1038" dy="539" grid="1" gridSize="10" guides="1" tooltips="1" connect="1" arrows="1" fold="1" page="1" pageScale="1" pageWidth="827" pageHeight="1169" math="0" shadow="0">
      <root>
        <mxCell id="0" />
        <mxCell id="1" parent="0" />
        <mxCell id="yDjFSKNVrX93qsdxlj6S-3" style="edgeStyle=orthogonalEdgeStyle;rounded=0;orthogonalLoop=1;jettySize=auto;html=1;exitX=0.5;exitY=1;exitDx=0;exitDy=0;fontSize=14;strokeWidth=2;strokeColor=#FF3333;" edge="1" parent="1" source="yDjFSKNVrX93qsdxlj6S-1" target="yDjFSKNVrX93qsdxlj6S-2">
          <mxGeometry relative="1" as="geometry" />
        </mxCell>
        <mxCell id="yDjFSKNVrX93qsdxlj6S-5" style="edgeStyle=orthogonalEdgeStyle;rounded=0;orthogonalLoop=1;jettySize=auto;html=1;exitX=0.5;exitY=1;exitDx=0;exitDy=0;fontSize=14;" edge="1" parent="1" source="yDjFSKNVrX93qsdxlj6S-1" target="yDjFSKNVrX93qsdxlj6S-4">
          <mxGeometry relative="1" as="geometry" />
        </mxCell>
        <mxCell id="yDjFSKNVrX93qsdxlj6S-7" style="edgeStyle=orthogonalEdgeStyle;rounded=0;orthogonalLoop=1;jettySize=auto;html=1;exitX=0.5;exitY=1;exitDx=0;exitDy=0;fontSize=14;strokeWidth=2;strokeColor=#3333FF;" edge="1" parent="1" source="yDjFSKNVrX93qsdxlj6S-1" target="yDjFSKNVrX93qsdxlj6S-6">
          <mxGeometry relative="1" as="geometry" />
        </mxCell>
        <mxCell id="yDjFSKNVrX93qsdxlj6S-1" value="&lt;b&gt;&lt;font style=&quot;font-size: 14px;&quot;&gt;Smart Farm&lt;/font&gt;&lt;/b&gt;" style="rounded=0;whiteSpace=wrap;html=1;strokeWidth=5;" vertex="1" parent="1">
          <mxGeometry x="370" y="40" width="120" height="60" as="geometry" />
        </mxCell>
        <mxCell id="yDjFSKNVrX93qsdxlj6S-9" style="edgeStyle=orthogonalEdgeStyle;rounded=0;orthogonalLoop=1;jettySize=auto;html=1;exitX=0.5;exitY=1;exitDx=0;exitDy=0;fontSize=12;strokeColor=#FF3333;strokeWidth=2;" edge="1" parent="1" source="yDjFSKNVrX93qsdxlj6S-2" target="yDjFSKNVrX93qsdxlj6S-8">
          <mxGeometry relative="1" as="geometry" />
        </mxCell>
        <mxCell id="yDjFSKNVrX93qsdxlj6S-21" style="edgeStyle=orthogonalEdgeStyle;rounded=0;orthogonalLoop=1;jettySize=auto;html=1;exitX=0.5;exitY=1;exitDx=0;exitDy=0;fontSize=12;strokeColor=#FF3333;strokeWidth=2;" edge="1" parent="1" source="yDjFSKNVrX93qsdxlj6S-2" target="yDjFSKNVrX93qsdxlj6S-15">
          <mxGeometry relative="1" as="geometry" />
        </mxCell>
        <mxCell id="yDjFSKNVrX93qsdxlj6S-23" style="edgeStyle=orthogonalEdgeStyle;rounded=0;orthogonalLoop=1;jettySize=auto;html=1;exitX=0.5;exitY=1;exitDx=0;exitDy=0;entryX=0.5;entryY=0;entryDx=0;entryDy=0;fontSize=12;strokeColor=#FF3333;strokeWidth=2;" edge="1" parent="1" source="yDjFSKNVrX93qsdxlj6S-2" target="yDjFSKNVrX93qsdxlj6S-16">
          <mxGeometry relative="1" as="geometry" />
        </mxCell>
        <mxCell id="yDjFSKNVrX93qsdxlj6S-2" value="&lt;span style=&quot;font-size: 12px;&quot;&gt;수동제어&lt;/span&gt;" style="rounded=0;whiteSpace=wrap;html=1;fontSize=14;strokeWidth=5;strokeColor=#FF0000;" vertex="1" parent="1">
          <mxGeometry x="130" y="150" width="120" height="60" as="geometry" />
        </mxCell>
        <mxCell id="yDjFSKNVrX93qsdxlj6S-27" style="edgeStyle=orthogonalEdgeStyle;rounded=0;orthogonalLoop=1;jettySize=auto;html=1;exitX=0.5;exitY=1;exitDx=0;exitDy=0;entryX=0.5;entryY=0;entryDx=0;entryDy=0;fontSize=12;strokeWidth=2;strokeColor=#FF3333;" edge="1" parent="1" source="yDjFSKNVrX93qsdxlj6S-4" target="yDjFSKNVrX93qsdxlj6S-24">
          <mxGeometry relative="1" as="geometry">
            <Array as="points">
              <mxPoint x="430" y="360" />
              <mxPoint x="309" y="360" />
            </Array>
          </mxGeometry>
        </mxCell>
        <mxCell id="yDjFSKNVrX93qsdxlj6S-28" style="edgeStyle=orthogonalEdgeStyle;rounded=0;orthogonalLoop=1;jettySize=auto;html=1;exitX=0.5;exitY=1;exitDx=0;exitDy=0;entryX=0.5;entryY=0;entryDx=0;entryDy=0;fontSize=12;strokeWidth=2;strokeColor=#3333FF;" edge="1" parent="1" source="yDjFSKNVrX93qsdxlj6S-4" target="yDjFSKNVrX93qsdxlj6S-25">
          <mxGeometry relative="1" as="geometry" />
        </mxCell>
        <mxCell id="yDjFSKNVrX93qsdxlj6S-29" style="edgeStyle=orthogonalEdgeStyle;rounded=0;orthogonalLoop=1;jettySize=auto;html=1;exitX=0.5;exitY=1;exitDx=0;exitDy=0;fontSize=12;strokeWidth=2;strokeColor=#3333FF;" edge="1" parent="1" source="yDjFSKNVrX93qsdxlj6S-4" target="yDjFSKNVrX93qsdxlj6S-26">
          <mxGeometry relative="1" as="geometry">
            <Array as="points">
              <mxPoint x="430" y="360" />
              <mxPoint x="551" y="360" />
            </Array>
          </mxGeometry>
        </mxCell>
        <mxCell id="yDjFSKNVrX93qsdxlj6S-4" value="&lt;font style=&quot;font-size: 12px;&quot;&gt;자동제어&lt;/font&gt;" style="rounded=0;whiteSpace=wrap;html=1;fontSize=14;strokeWidth=5;" vertex="1" parent="1">
          <mxGeometry x="370" y="150" width="120" height="60" as="geometry" />
        </mxCell>
        <mxCell id="yDjFSKNVrX93qsdxlj6S-32" style="edgeStyle=orthogonalEdgeStyle;rounded=0;orthogonalLoop=1;jettySize=auto;html=1;exitX=0.5;exitY=1;exitDx=0;exitDy=0;entryX=0.5;entryY=0;entryDx=0;entryDy=0;fontSize=12;strokeWidth=2;strokeColor=#3333FF;" edge="1" parent="1" source="yDjFSKNVrX93qsdxlj6S-6" target="yDjFSKNVrX93qsdxlj6S-30">
          <mxGeometry relative="1" as="geometry" />
        </mxCell>
        <mxCell id="yDjFSKNVrX93qsdxlj6S-33" style="edgeStyle=orthogonalEdgeStyle;rounded=0;orthogonalLoop=1;jettySize=auto;html=1;exitX=0.5;exitY=1;exitDx=0;exitDy=0;fontSize=12;strokeWidth=2;strokeColor=#3333FF;" edge="1" parent="1" source="yDjFSKNVrX93qsdxlj6S-6" target="yDjFSKNVrX93qsdxlj6S-31">
          <mxGeometry relative="1" as="geometry" />
        </mxCell>
        <mxCell id="yDjFSKNVrX93qsdxlj6S-6" value="&lt;font style=&quot;font-size: 12px;&quot;&gt;관찰일지&lt;/font&gt;" style="rounded=0;whiteSpace=wrap;html=1;fontSize=14;" vertex="1" parent="1">
          <mxGeometry x="632" y="150" width="120" height="60" as="geometry" />
        </mxCell>
        <mxCell id="yDjFSKNVrX93qsdxlj6S-8" value="&lt;span style=&quot;font-size: 12px;&quot;&gt;쿨링팬 on/off&lt;/span&gt;" style="rounded=0;whiteSpace=wrap;html=1;fontSize=14;strokeWidth=5;strokeColor=#FF3333;" vertex="1" parent="1">
          <mxGeometry x="18" y="269" width="100" height="50" as="geometry" />
        </mxCell>
        <mxCell id="yDjFSKNVrX93qsdxlj6S-15" value="&lt;span style=&quot;font-size: 12px;&quot;&gt;물펌프 on/off&lt;/span&gt;" style="rounded=0;whiteSpace=wrap;html=1;fontSize=14;strokeWidth=5;strokeColor=#FF3333;" vertex="1" parent="1">
          <mxGeometry x="140" y="269" width="100" height="50" as="geometry" />
        </mxCell>
        <mxCell id="yDjFSKNVrX93qsdxlj6S-16" value="&lt;span style=&quot;font-size: 12px;&quot;&gt;led on/off&lt;/span&gt;" style="rounded=0;whiteSpace=wrap;html=1;fontSize=14;strokeWidth=5;strokeColor=#FF3333;" vertex="1" parent="1">
          <mxGeometry x="260" y="269" width="100" height="50" as="geometry" />
        </mxCell>
        <mxCell id="yDjFSKNVrX93qsdxlj6S-24" value="&lt;font style=&quot;font-size: 12px;&quot;&gt;온습도 센서&lt;br&gt;및 쿨링팬&lt;br&gt;&lt;/font&gt;" style="rounded=0;whiteSpace=wrap;html=1;fontSize=14;strokeWidth=5;strokeColor=#FF0000;" vertex="1" parent="1">
          <mxGeometry x="259" y="410" width="100" height="50" as="geometry" />
        </mxCell>
        <mxCell id="yDjFSKNVrX93qsdxlj6S-25" value="&lt;font style=&quot;font-size: 12px;&quot;&gt;토양습도센서&lt;br&gt;및 물펌프&lt;br&gt;&lt;/font&gt;" style="rounded=0;whiteSpace=wrap;html=1;fontSize=14;" vertex="1" parent="1">
          <mxGeometry x="380" y="410" width="100" height="50" as="geometry" />
        </mxCell>
        <mxCell id="yDjFSKNVrX93qsdxlj6S-26" value="&lt;font style=&quot;font-size: 12px;&quot;&gt;조도센서&lt;br&gt;및 led&lt;br&gt;&lt;/font&gt;" style="rounded=0;whiteSpace=wrap;html=1;fontSize=14;" vertex="1" parent="1">
          <mxGeometry x="501" y="410" width="100" height="50" as="geometry" />
        </mxCell>
        <mxCell id="yDjFSKNVrX93qsdxlj6S-30" value="&lt;span style=&quot;font-size: 12px;&quot;&gt;관찰일지&lt;br&gt;UI&lt;br&gt;&lt;/span&gt;" style="rounded=0;whiteSpace=wrap;html=1;fontSize=14;strokeWidth=5;strokeColor=#3333FF;" vertex="1" parent="1">
          <mxGeometry x="581.5" y="260" width="100" height="50" as="geometry" />
        </mxCell>
        <mxCell id="yDjFSKNVrX93qsdxlj6S-31" value="&lt;font style=&quot;font-size: 12px;&quot;&gt;관찰일지 DB&lt;br&gt;구축&lt;br&gt;&lt;/font&gt;" style="rounded=0;whiteSpace=wrap;html=1;fontSize=14;strokeWidth=5;strokeColor=#3333FF;" vertex="1" parent="1">
          <mxGeometry x="702.5" y="260" width="100" height="50" as="geometry" />
        </mxCell>
        <mxCell id="yDjFSKNVrX93qsdxlj6S-34" value="" style="endArrow=none;html=1;rounded=0;fontSize=12;strokeWidth=5;strokeColor=#FF0000;" edge="1" parent="1">
          <mxGeometry width="50" height="50" relative="1" as="geometry">
            <mxPoint x="18" y="20" as="sourcePoint" />
            <mxPoint x="50" y="20" as="targetPoint" />
          </mxGeometry>
        </mxCell>
        <mxCell id="yDjFSKNVrX93qsdxlj6S-35" value="" style="endArrow=none;html=1;rounded=0;fontSize=12;strokeWidth=5;strokeColor=#3333FF;" edge="1" parent="1">
          <mxGeometry width="50" height="50" relative="1" as="geometry">
            <mxPoint x="18" y="32" as="sourcePoint" />
            <mxPoint x="50" y="32" as="targetPoint" />
          </mxGeometry>
        </mxCell>
        <mxCell id="yDjFSKNVrX93qsdxlj6S-36" value="&lt;font style=&quot;font-size: 12px;&quot;&gt;토양습도센서&lt;br&gt;및 물펌프&lt;br&gt;&lt;/font&gt;" style="rounded=0;whiteSpace=wrap;html=1;fontSize=14;strokeWidth=5;strokeColor=#3333FF;" vertex="1" parent="1">
          <mxGeometry x="380" y="410" width="100" height="50" as="geometry" />
        </mxCell>
        <mxCell id="yDjFSKNVrX93qsdxlj6S-37" value="&lt;font style=&quot;font-size: 12px;&quot;&gt;조도센서&lt;br&gt;및 led&lt;br&gt;&lt;/font&gt;" style="rounded=0;whiteSpace=wrap;html=1;fontSize=14;strokeWidth=5;strokeColor=#3333FF;" vertex="1" parent="1">
          <mxGeometry x="501" y="410" width="100" height="50" as="geometry" />
        </mxCell>
        <mxCell id="yDjFSKNVrX93qsdxlj6S-38" value="&lt;font style=&quot;font-size: 12px;&quot;&gt;관찰일지&lt;/font&gt;" style="rounded=0;whiteSpace=wrap;html=1;fontSize=14;strokeWidth=5;strokeColor=#3333FF;" vertex="1" parent="1">
          <mxGeometry x="632" y="150" width="120" height="60" as="geometry" />
        </mxCell>
      </root>
    </mxGraphModel>
  </diagram>
</mxfile>
